<svg version="1.2" xmlns="http://www.w3.org/2000/svg" viewBox="0 0 176 67" width="176" height="67"><style>.a{fill:#085d98;stroke:#080808;stroke-width:.7}.b{fill:#fcd41c;stroke:#080808;stroke-width:.9}.c{fill:#fcd41c;stroke:#080808;stroke-width:.8}.d{fill:none;stroke:#080808;stroke-width:.3}.e{fill:#085d98;stroke:#080808;stroke-width:.9}.f{fill:none;stroke:#080808;stroke-linecap:round;stroke-width:.8}.g{fill:none;stroke:#080808;stroke-linecap:round;stroke-width:.5}.h{fill:none;stroke:#080808;stroke-linecap:round;stroke-width:.7}.i{fill:none;stroke:#080808;stroke-linecap:round;stroke-width:.9}.j{fill:none;stroke:#080808;stroke-width:.9}.k{fill:none;stroke:#080808;stroke-linecap:round;stroke-width:1}.l{fill:#080808}.m{fill:#085d98;stroke:#080808;stroke-linecap:round;stroke-width:.9}.n{fill:none;stroke:#080808;stroke-linecap:round;stroke-width:.6}.o{fill:none;stroke:#080808;stroke-width:.8}</style><path class="a" d="m149.5 59.7c0.3 1.1-0.1 1.1-0.6 1.9-0.4 0.7 0.3 3.1 0.3 3.1-2.1 0.2-4.7-3.1-2.2-4.6z"/><path class="a" d="m20.7 58.4c0 0 0.2 0.2-0.6 1.3-0.9 1.1-1.3 3.6-1.3 3.6-1.7-1.2-2.4-5.2-1.3-5.2z"/><path class="a" d="m33.8 55.7c0.6-0.7 3.9 1 2.6 4.5-1.4-2.8-3-2-3-2z"/><path class="a" d="m84.4 58.3c1.2 0.4 0.6 3.3-1.4 3.5 0.7-2.2-1.9-3.9-0.2-3.9z"/><path class="a" d="m90.3 54.6c1.1-0.4 3.1 1.5 1.4 4.2-1.6-2.4-3-2.6-3-2.6z"/><path class="a" d="m90.8 50.7c0.6-0.7 3.3-1.1 3.2 3-1.9-1.8-3.5-0.6-3.5-0.5z"/><path class="a" d="m86.2 47.8c-0.2-1.1 1.9-2.8 4.1-0.7-2.2 0.5-2.8 1.6-2.8 1.6z"/><path class="b" d="m77.5 33.5c-0.2 1.7 2 4.2 3.8 5.3 1.9 1.1 1.6 3.4 0.2 4.7 0 0-3.8 3.4-5.3 5-1.5 1.6-1.3 3.3 0.7 3.4 1.6 0.1 5.1 0.6 5.6-0.8 0.4-1.4 1.6-3.3 3.1-3.9 1.1-0.6 2.1-0.3 2.3 0.7 0.2 0.7-0.4 1 0.4 0.9 1.7-0.3 3.3-0.1 3.5 2.3 0.1 2.5-1.2 2.4-1.2 2.4 0.3 0.6 0.4 1.3 0.3 2-0.3 1.7-2.9 4.1-6 2.1 0 0.7 0.3-0.3 0 0.3-0.1 1.2-2.4 1.5-3.4 1.4-1.1-0.2-1.2-1.1-1.7-0.7-0.7 0.4-2.2 0.6-3-0.1 0 0.9-3.1 0.6-3.7 0.3-0.2-0.1-0.5 0.5-0.2-0.1 1.1 0.6-3.3 0.7-4.1 0.2-0.6-0.4 0.1-0.1 0.1-0.1-2.7 0.6-4.3-0.4-5-0.8-0.7-0.4-0.9-1.1-0.9-1.1 0.1 0.9 0-0.5 0.1 0.4-2-0.2-3.2-2.4-3.6-4.2-0.3-1.3 0.3-3 1.1-3.9 0.8-1 1.3-1.5 1.2-2.4-0.3-1.5-0.8-2.4-0.9-4-0.1-1.7 1.1-3.5 3.1-4.2 3.9-1.2 8.3 1.2 8.1-5z"/><path class="c" d="m135.1 41.4l0.4 0.1 0.2 0.3 0.8 0.6c-0.4-0.6-0.5 2.2-2.3 2.3-1.8-0.9-1.3-3.1-1.8-4.7z"/><path class="a" d="m28.8 56.9c1.2-0.2 3.5 3.8 1.6 6.4-1-3.1-3.6-4.4-3.6-4.4z"/><path class="a" d="m31.6 50.8c0.4-0.9 3.5-0.2 4.1 2.8-2.1-1.2-3.9-0.3-3.9-0.3z"/><path class="a" d="m145 48.4c-0.3-1 2.3-3.7 4.7-2.7-2.2 1.5-2.8 4-2.8 4z"/><path class="a" d="m154.8 55.3c0.9-1 4.5 0.7 4 5.4-2.1-2.9-4.6-1.8-4.6-1.8z"/><path class="a" d="m154.5 49.4c0.4-1.3 4.2-1.2 5.5 2.5-2.7-1-4.7 0.7-4.7 0.7z"/><path class="a" d="m157.2 12.2c-0.2-1.4 3.5-3.4 6-0.7-2.9 0.6-4.1 3.4-4.1 3.4 0 0-1.9-2.7-1.9-2.7z"/><path class="a" d="m162.8 17.9c0.4-1.1 4.6-0.4 5.1 3.3-2.8-1.7-4.4 0-4.4 0z"/><path class="a" d="m150.3 11.5c-0.5-1.1 1.4-3.9 4-2.6-2.2 1.5-1.5 4.2-1.5 4.2z"/><path class="a" d="m145.5 15.6c-0.7-0.4-0.7-3.8 2.2-4-0.5 1.4-0.1 3.8-0.1 3.8z"/><path class="d" d="m128.6 29.5c0 0-3 10.3-10.9 1.7"/><path class="b" d="m67.7 35.2c-3 0.8-8.2 3.1-9.8 8.9-1.9 5.7-5.4 5.9-7.2 5.9-2.5 0.1-10.7-2.3-14.5-2.5-3.8-0.1-8.6 1.1-10.7 2.5-2.1 1.4-0.7 2.2-0.7 2.2 0.9-0.2 4.1-2.2 5.7-2.1 1.6 0.2 2.7 1.7 2.1 3-0.6 1.4-0.4 0.6-0.1 0.9 2 0.2 2.4 1.3 2.3 2.8-0.2 1.4-1.9 2.5-3.3 2-1.4-0.4-1-0.5-1.3 0.3-0.2 0.8-1.8 2.5-4.8 1.8-3.2-0.6-2.9-6-3.3-3.5-0.2 1.4-2 3.1-4.6 2.3-2.7-0.7-2.3-3.1-2.1-4.2 0 0-0.5 0.1-0.7 0-2.2-0.6-1.5-4.1-0.7-4.8v-0.7c0.1-1.3 1.2-2.8 3.1-3.1-0.9-3.7 2.4-3.9 2.4-3.9 0 0-1-2.5 3.6-2.4 1.3 0 2 0.1 2 0.1-1-1.3 0.2-3.1 1.6-3.4 1.4-0.4 2.5 0 3.7 1.2 1.1 1.1 2.7 2.5 4.1 2.8 1.4 0.3 4.6 0.4 6.7-1.1 2-1.6 8.4-10.4 17.3-11.5 0.9 0.1-40.9 0.1-41.3 0.1-1.5 0-4.3-0.3-7.2 1.4 0-3.7 4.8-3.8 7.8-3.8-0.6-0.6-1.6-2-1.8-5.4-0.3-3.3 3.1-7.2 6.8-7.2 2.6-0.2 21.5 0.5 24.1 0.5 2.6 0 2.2 0.2 4.9 1.2 2.7 1 4.8 1.3 8 1.3 3.2 0 2.4-0.2 4.8-0.2 6.8 0.8 16.7 1.9 19.5 1.8 2.7 0 9.7 0.6 9.7-2.6 0-3.3-5.5-4.2-8.9-4.2-4 0.1-6.9 1.2-12 3.3-5 2.1-7.5 1.6-8.6 1.6-2.6 0.3-5.3 0.6-9 0-3.8-0.5-11-4.1-12.1-7.6 5-1.2 7.5 0 10.9 1.5 0 0 1 0.1 0.4-0.1 2.5-2.5 6.5-4.4 11.1-3.9 4.6 0.4 5.3 2.1 8 2.5 2.6 0.3 6.6-0.5 9.8-0.5 3.7 0 7.3 0.2 10.2 2 1.8 1.2 3.8 3.1 3.9 5.3 0 1.8-1.4 3.8-3 4.5-4.9 2.2-13.4 1.3-19 0.6-5.6-0.7-7.8-0.8-8.7-0.9-0.7 0 3.5 3.1 2 2.8-1.5-0.3-2 0.8-5 0.2-0.4-0.2-0.8-0.4-0.8 0.1-0.2 0.6-3.5 0.4-4.3 0-1.2-0.6-0.3-0.2-0.8 0.2-0.6 0.3-3.8 0.5-6.2-0.2l-0.1 0.1c-1.2 0.3-2.7 0.3-3.4 0l-0.8-0.2c-0.4-0.1-2 0.7-3 0.1-1-0.5-0.7-0.9-2-2.6-1.2-1.8-3.4-1.9-5.1-2.2-1.6-0.3-10.5-0.3-12.3-0.2-1.7 0.2-3.5 1.4-3.6 3.1-0.1 1.8 1.9 4 3.4 4.2 1.5 0.1 51.7-1 56.1-0.5 4.5 0.5 8.4 2.1 11 2.4 2.6 0.3 6 0.5 7.5 0.3 1.5-0.2 3.8-0.6 4.7-1 0.9-0.5 0.5-0.5 1.6-1.1-2.1-2.6-1.9-7.9 2.1-6.5-1.9-2.7-0.1-4.6 2-4.2-0.9-2.3 0.5-4.1 2.7-3.1-0.4-2.8 2-3 3.1-1.3 0.3-3.1 3.1-2.7 3.8-0.6 0.9-2.5 3.3-1.6 3.4 0.4 0.9-1.9 3.4-0.8 3.1 1.1 1.3-1.5 2.8-0.4 2.3 1.3 1.4-0.8 2.8 0.4 1.9 2.5 3.2-1.3 4 3.6 2.5 5.8-1.6 2.2 1.5 1.5 1.8 4.1 1.1 0 2.8-0.1 3.8 1.6-5.2 1.6 1.3 1.5 2.3 0.9 1-0.6 5.6-4.3 6.6-5.4 0.8-0.8-0.6-2.8-1.5-3.7-1.1-1.1-1.1-2.6-0.4-3.5 0.7-0.8 1.3-1.2 2.8-1 1.2 0.1 2.1 1 1.2 0.1-0.8-0.8-0.4-2.1 0.2-2.8 0.7-0.8 1.6-1.1 2.8-0.8 0.7 0.2 1.3 0.8 1.3 1.5 0 1 0.1 0.7 0.9 0.4 0.7-0.3 2.8-0.9 3.9-0.4 0.9 0.3 2.3 1.3 2.1 2.5-0.3 1.3-0.7 1 0.2 0.9 0.8-0.2 2.8 1.2 3.3 2.5 0.6 1.6 0.4 3.8-0.8 5-0.6 0.5-1.5 0.4-2.5 0.4-0.9 0-0.8 2.1-0.2 2.1 0.5 0 0.8 0.9 0 1.8-0.4 0.6 0 0.6-0.7 1.1 0.8 0.5-0.2 2-1.4 2.9 0.7 0.4-0.9 1.7-1.7 1.7-0.1 0.8-0.3 1.9-1.7 2.8-1.2 0.6-1.9 0.3-1.7 0.5-0.5 2.6-2.7 2-2.5 2.3 0.2 0.3-0.7 2.1-2 2.4-2.1 0.6-1.6 0.1-3.5 2.5-1.8-1.1-2.7 0.5-4.4 1.2-1.7 0.6-2.4-0.6-2.9 0-0.9-1.8-2.5-3-4.7-3.6-0.6 2.1 1.8 3.5 2.4 4-0.9 0.9-2.9 2-4.8 1.3 0.1 0-0.4 1.7-2.5 1.4-0.6-0.1-1.7 2.4-6.9 0.6 0 0.2 6.4 1.8 10.3 2 4 0.2 6.3 2.4 8.9 1.8 2.5-0.6 2.1-6.1 6.8-4.6 1.4 0.5 1.4 1.8 1.1 2.7-0.4 1.6 1.5-0.5 2.4-1.1 1.6-0.9 4.2-1.1 5 0.4 0.9 1.4 1.5 3.8-0.2 4.5l0.4 0.2c1.6 0.7 1.2 6.7-2.2 6.1-1.2-0.3-3.9-2.5-3.4-1.8 0.4 0.8 0.1 2.2-0.5 2.8-0.6 0.7-3.5 1.1-4.6 0.8-1.2-0.3-1.6-0.8-1.9-1.5-0.5-1.2-0.4-1.9-0.5-1.2-0.5 1.5-2.8 0.1-2.6 0.6 0.2 0.5 1 0.9 0.1 1.3-1.8 0.2-3.1 0-3.7-0.2 0 0-0.5-0.2-0.5 0.1-1.6 0-3.3 0.4-4.3-0.6 0 0 0.3 0.3 0.3 0.6-2.2 0.2-3.4 0.4-4.2-1 0 0.4 0.4 0.3 0.3 1-2.4 0.2-5.1 0.3-6-0.8 0 0 0.2 0.4 0.2 0.8-2.7 0.3-5.7 0-6.4-3.3-0.7 0.6-1.8 1-2.7 1-3.1 0.1-6-1.8-5.1-7.7 0.1-1.6-0.4-2.4-1.1-1.3-0.7 1.1-2.4 0.9-3.5 0-1.2-1-10.2-6.9-15.5-11.1-2.4-2.1-6.7-3.7-8.6-4-3.8-0.6-8.2-0.4-12 0.6z"/><path class="e" d="m126.3 28.4c0.1 0.2-0.1 4.5 0.7 7 0.5 1.9-4.2 2.8-5.7-0.3-1-2-1.8-3.7-1.9-5.7 0-0.7 1.7-0.2 2-1.2 0.3-1 0.6-1.1 1.3-0.4 0.9 0.9 2.9 0.3 3.4-0.6z"/><path class="f" d="m15.4 55.4c0.6-1.3 2.1-1.7 2.1-1.7"/><path class="g" d="m111.3 33c-1.1 1.9-1.5 4.4-0.2 5.9"/><path class="g" d="m115.9 37.1c-1.9 2-2.6 3.8-2.1 6.4"/><path class="g" d="m115.9 38.9c-0.7 1.4-1.5 2.8-0.9 5.7"/><path class="g" d="m120.5 40.1c-0.4 1.5-0.6 4 1.2 6.1"/><path class="g" d="m123 45.6c-1.3-1.4-1.7-3.5-1.4-5.3"/><path class="g" d="m132.6 35.4c1.4 0.5 3.3 2.5 3.2 2.7"/><path class="g" d="m131.5 38.1c1.8-1.3 3.9 0.9 3.9 0.9"/><path class="h" d="m106.2 20.6c1.2 0.5 1 3.3 1 3.3"/><path class="h" d="m131.6 16.7c-1.3 0.9-0.8 3.5-0.8 3.5"/><path class="i" d="m157.6 19.6c0 0 0.2-0.6 0.4-1.8 0.3-1.1 1.2-2.2 2.6-2.7"/><path class="i" d="m149.4 14.1c1.4 1.3 1.1 3.6 1.1 3.6"/><path class="j" d="m107.3 49.8c0.7-1-0.3-2.5-1.3-3.2-3.9-2.8-3-2.9-3-2.9 0.9 0.3 4.3 2.7 5.2 5.8"/><path class="i" d="m113.1 38.1c-4.9 8.2 3.6 9.2 5.3 8"/><path class="j" d="m105 32.7c-0.8 0.3-1.6 0.6-2.5 0.5 0.6-1.6 0.5-4.5 3.5-5.7"/><path class="f" d="m108.5 37.4c0 2.7 2 3.8 2.8 4.2"/><path class="i" d="m153.5 11.8c0 1.1 0.2 1.5 0.6 2.5 0.3 0.9-0.2 2.6-0.2 2.6"/><path class="f" d="m24.8 40.7c2.4 0.3 3.4 1 3.4 1"/><path class="f" d="m19.5 43c1.8 0.7 3.3 0.7 3.3 0.7"/><path class="f" d="m17.3 47c1.5-0.2 2.3-0.2 2.3-0.2"/><path class="f" d="m14 50.7c0.8-0.5 3.4-0.2 3.4-0.1"/><path class="f" d="m30.4 58.6c-0.4-2.1-2.1-2.9-3.4-2.9"/><path class="f" d="m32.4 54.1c-1.2-0.2-2.8-0.1-2.8-0.1"/><path class="i" d="m136.2 27.5c2.9 1.9 3.8 3.9 3.3 7.8"/><path class="i" d="m118 37.1c-1.4 3.4-1.6 9.2 3.4 11"/><path class="i" d="m123 40c0.2 2.4 1.9 6.9 5.2 7.5"/><path class="f" d="m47.5 22.7c-0.7-1.9-2.8-3.5-2.8-3.5"/><path class="f" d="m51.4 22.7c-1.2-2.2-3.1-3.7-3.1-3.7"/><path class="f" d="m58.1 22.7c-1.9-1.1-2.8-1.8-4.1-3.6"/><path class="f" d="m63.2 22.6c-1.1-0.5-1.7-0.9-2.5-1.6-0.7-0.6-1.2-1.2-2-2"/><path class="i" d="m62.1 16.7c4.4-0.4 5.9-2 6.6-2.9"/><path class="i" d="m54.1 10.3c2.9 1.2 4.1 0 4.4 0"/><path class="i" d="m131 46.1c-2.4-1.1-2.9-3.7-2.9-3.7"/><path class="k" d="m132.1 33.8c2.2-0.3 7.9 4.4 6 10.3"/><path class="k" d="m135.6 31.2c3.2 0.6 4.8 5.6 2.8 8.6"/><path class="f" d="m108.9 34.4c-0.7 1.3-0.4 3.7 0 5-5 0-4.7-3.3-4.5-4.9 0.1-1 0.9-2.7 3-5.5"/><path class="l" d="m116.5 16.9c0.4 0 0.6 0.1 0.7 0.5 0 0.1 0.1 0.4 0.1 0.7q0.1 0.5 0 1.1c-0.2 0.9-1.4 1-1.6 0.3q-0.2-0.7-0.2-1.3c0-0.2 0-0.4 0.1-0.6 0.1-0.5 0.4-0.8 0.9-0.7z"/><path class="l" d="m123.8 17.3c-0.2-0.6-0.3-2 1.1-1.7q0 0 0 0c0.3 0.2 0.6 0.9 0.7 1.3 0.1 0.4 0.4 1.6-0.7 1.7q0 0 0 0c-0.6-0.2-0.9-0.7-1.1-1.3z"/><path class="i" d="m109.6 23.2h2c1.4 2.4 5.3 1.6 4.2 2"/><path class="i" d="m116 25.1c-0.2 3.3 5.7 5.9 5.8 0.9"/><path class="i" d="m129.8 21.9c-0.7 1.4-0.6 2-1.3 2.9-0.5 0.7-1.3 0.5-2.2 1.8-1.1 2.1-4.3 1.7-4.5-0.7"/><path class="i" d="m113 24.7c1.4 3.7 0.4 6.2 0.4 6.2"/><path class="h" d="m128.5 25.5c0.8 1.2 1.5 1.3 1.5 1.3"/><path class="b" d="m106 27.4c-0.2 0.1-0.9 0.4-1.3 0.3-1.1-0.3-2-1.1-2.6-1.9 1-0.4 1.8-0.3 2.6-0.2 0.7 0.1 1.3-0.4 1.3-0.4"/><path class="h" d="m159.6 28.2c-1.3 0.3-2.1-0.6-2.1-0.5"/><path class="h" d="m158.7 30.9c-2.4 0.7-4.1-0.7-4.1-0.7"/><path class="m" d="m155.7 53.8c-1.5-0.6-3.6-0.1-3.6-0.1"/><path class="m" d="m150.4 58.2c-0.7-1.3-1.8-1.9-1.8-1.9"/><path class="f" d="m136.7 60.8c-1.1-0.4-1.1-2.4-1.1-3.8"/><path class="f" d="m132 60.3c-0.9-0.7-0.6-3.3-0.6-3.3"/><path class="i" d="m128.3 60.4c-0.8-0.9-0.7-3.6-0.7-3.6"/><path class="i" d="m122.4 60.3c-0.9-1.1-0.5-3.6-0.5-3.6"/><path class="f" d="m82.3 54.7c2.6 1.6 2.6 2.8 2.5 3.2"/><path class="f" d="m78.4 54.8c0.3 2.3 1.9 3.7 1.9 3.7"/><path class="f" d="m75.2 55c0.1 2.1 1.6 3.5 1.6 3.5"/><path class="f" d="m71.3 55c0 2.5 1.5 3.5 1.5 3.5"/><path class="f" d="m67.2 55c0.1 1.9 0.6 2.9 1.3 3.6"/><path class="f" d="m62.9 54.4c-0.4 1.2 0.2 2.4 0.2 2.4"/><path class="f" d="m88.2 48.8c-2.1 0.5-2.7 1.6-2.7 1.6"/><path class="f" d="m90.4 53.3c-1.4-2.7-3.4-1.1-4.1-0.5"/><path class="n" d="m101.3 47.9c1.8 0.7 2.6 0.5 3.6-0.1"/><path class="n" d="m98.9 46.1c1.8 0.9 2.9 0.9 3.9 0.1"/><path class="n" d="m95.6 44c1.3 0.7 2 0.9 2.7 0.3"/><path class="n" d="m93.4 42.3c1.5 0.7 2.4 1 3.2 0.4"/><path class="o" d="m128.1 25c0 0 0.6 2.5 0.6 3.7 0 1.5-0.8 2.8-0.8 2.8 0 0-1.4-1.3-1.8-4.8"/><path class="o" d="m119.1 28.5c0 0 0.3 1.5 0.3 2.3-0.1 0.8-0.7 2.3-0.7 2.3-0.6-0.5-1.8-2.1-2.3-6.3"/><path class="h" d="m157.2 32.4c-2.1 0.4-3.4-0.6-3.5-0.7"/><path class="f" d="m148.1 40.9c0 0-2 0.2-3.3-2.1"/><path class="f" d="m151.9 38c-1.4 0.2-2.7 0.3-4.1-1.6"/><path class="f" d="m155.2 35.3c-0.3 0-2.5 1.6-4.8-1.2"/><path class="o" d="m114.9 17.3c1.3-0.6 4.4-0.2 3.9 1.3-0.3 1.3-4.8 1.8-4.7-0.1 0-0.4 0.1-1 0.8-1.2z"/><path class="o" d="m122.3 17.2c0.4-1.8 3.4-2 4.4-1.5 0.1 0.1 0.3 0.4 0.4 0.5 0.6 1.9-2.8 2.3-3.6 2.3"/><path class="i" d="m120.8 13.9c0 0 0.2 2.4 1.9 3.9 1.6 1.4 1 3.5 1 3.5"/><path class="i" d="m118 15.7c0 0 1.8 1.6 1.2 3.3-0.5 1.7 0.2 2.5 0.2 2.5"/><path class="i" d="m123 21.5c2.8 0 1.9 3 0.1 2.4 0.3 2.2-3.3 2.6-3.1-0.3-1.9 0.8-2.7-1.9 0.2-2.2"/><path class="a" d="m149.5 123.6c0.3 1.1-0.1 1.1-0.6 1.9-0.4 0.7 0.3 3.1 0.3 3.1-2.1 0.2-4.7-3.1-2.2-4.6z"/><path class="a" d="m20.7 122.3c0 0 0.2 0.2-0.6 1.3-0.9 1.1-1.3 3.6-1.3 3.6-1.7-1.2-2.4-5.2-1.3-5.2z"/><path class="a" d="m33.8 119.6c0.6-0.7 3.9 1 2.6 4.5-1.4-2.8-3-2-3-2z"/><path class="a" d="m84.4 122.2c1.2 0.4 0.6 3.3-1.4 3.5 0.7-2.2-1.9-3.9-0.2-3.9z"/><path class="a" d="m90.3 118.5c1.1-0.4 3.1 1.5 1.4 4.2-1.6-2.4-3-2.6-3-2.6z"/><path class="a" d="m90.8 114.6c0.6-0.7 3.3-1.1 3.2 3-1.9-1.8-3.5-0.6-3.5-0.5z"/><path class="a" d="m86.2 111.7c-0.2-1.1 1.9-2.8 4.1-0.8-2.2 0.6-2.8 1.7-2.8 1.7z"/><path class="b" d="m77.5 97.4c-0.2 1.7 2 4.2 3.8 5.3 1.9 1.1 1.6 3.4 0.2 4.7 0 0-3.8 3.3-5.3 5-1.5 1.6-1.3 3.3 0.7 3.4 1.6 0.1 5.1 0.6 5.6-0.8 0.4-1.4 1.6-3.3 3.1-3.9 1.1-0.6 2.1-0.3 2.3 0.6 0.2 0.8-0.4 1.1 0.4 1 1.7-0.3 3.3-0.1 3.5 2.3 0.1 2.5-1.2 2.4-1.2 2.4 0.3 0.6 0.4 1.3 0.3 2-0.3 1.7-2.9 4.1-6 2 0 0.8 0.3-0.2 0 0.4-0.1 1.2-2.4 1.5-3.4 1.4-1.1-0.2-1.2-1.1-1.7-0.7-0.7 0.4-2.2 0.6-3-0.1 0 0.9-3.1 0.6-3.7 0.3-0.2-0.1-0.5 0.5-0.2-0.1 1.1 0.6-3.3 0.7-4.1 0.2-0.6-0.4 0.1-0.1 0.1-0.1-2.7 0.6-4.3-0.4-5-0.8-0.7-0.4-0.9-1.1-0.9-1.1 0.1 0.9 0-0.5 0.1 0.3-2-0.1-3.2-2.3-3.6-4.1-0.3-1.3 0.3-3 1.1-3.9 0.8-1 1.3-1.5 1.2-2.4-0.3-1.5-0.8-2.4-0.9-4-0.1-1.7 1.1-3.5 3.1-4.2 3.9-1.2 8.3 1.2 8.1-5z"/><path class="c" d="m135.1 105.3l0.4 0.1 0.2 0.3 0.8 0.6c-0.4-0.6-0.5 2.2-2.3 2.3-1.8-0.9-1.3-3.1-1.8-4.7z"/><path class="a" d="m28.8 120.8c1.2-0.2 3.5 3.8 1.6 6.4-1-3.1-3.6-4.4-3.6-4.4z"/><path class="a" d="m31.6 114.7c0.4-0.9 3.5-0.2 4.1 2.7-2.1-1.1-3.9-0.2-3.9-0.2z"/><path class="a" d="m145 112.3c-0.3-1 2.3-3.7 4.7-2.7-2.2 1.5-2.8 4-2.8 4z"/><path class="a" d="m154.8 119.2c0.9-1 4.5 0.7 4 5.4-2.1-2.9-4.6-1.8-4.6-1.8z"/><path class="a" d="m154.5 113.3c0.4-1.3 4.2-1.2 5.5 2.5-2.7-1-4.7 0.7-4.7 0.7z"/><path class="a" d="m157.2 76.1c-0.2-1.4 3.5-3.4 6-0.7-2.9 0.6-4.1 3.4-4.1 3.4 0 0-1.9-2.7-1.9-2.7z"/><path class="a" d="m162.8 81.8c0.4-1.1 4.6-0.4 5.1 3.3-2.8-1.7-4.4 0-4.4 0z"/><path class="a" d="m150.3 75.4c-0.5-1.1 1.4-3.9 4-2.7-2.2 1.6-1.5 4.3-1.5 4.3z"/><path class="a" d="m145.5 79.5c-0.7-0.4-0.7-3.8 2.2-4-0.5 1.4-0.1 3.8-0.1 3.8z"/><path class="d" d="m128.6 93.4c0 0-3 10.3-10.9 1.7"/><path class="b" d="m67.7 99.1c-3 0.8-8.2 3.1-9.8 8.9-1.9 5.7-5.4 5.9-7.2 5.9-2.5 0.1-10.7-2.3-14.5-2.5-3.8-0.1-8.6 1.1-10.7 2.5-2.1 1.4-0.7 2.2-0.7 2.2 0.9-0.2 4.1-2.2 5.7-2.1 1.6 0.2 2.7 1.7 2.1 3-0.6 1.4-0.4 0.6-0.1 0.9 2 0.2 2.4 1.3 2.3 2.8-0.2 1.4-1.9 2.5-3.3 2-1.4-0.5-1-0.5-1.3 0.3-0.2 0.8-1.8 2.5-4.8 1.8-3.2-0.6-2.9-6-3.3-3.6-0.2 1.5-2 3.1-4.6 2.4-2.7-0.7-2.3-3.1-2.1-4.2 0 0-0.5 0.1-0.7 0-2.2-0.6-1.5-4.1-0.7-4.8v-0.7c0.1-1.3 1.2-2.8 3.1-3.1-0.9-3.7 2.4-3.9 2.4-3.9 0 0-1-2.5 3.6-2.4 1.3 0 2 0.1 2 0.1-1-1.3 0.2-3.1 1.6-3.4 1.4-0.4 2.5 0 3.7 1.2 1.1 1.1 2.7 2.5 4.1 2.8 1.4 0.3 4.6 0.4 6.7-1.1 2-1.6 8.4-10.4 17.3-11.5 0.9 0-40.9 0.1-41.3 0.1-1.5 0-4.3-0.3-7.2 1.4 0-3.7 4.8-3.8 7.8-3.8-0.6-0.6-1.6-2-1.8-5.4-0.3-3.3 3.1-7.2 6.8-7.2 2.6-0.2 21.5 0.5 24.1 0.5 2.6 0 2.2 0.2 4.9 1.2 2.7 1 4.8 1.3 8 1.3 3.2 0 2.4-0.2 4.8-0.2 6.8 0.8 16.7 1.9 19.5 1.8 2.7 0 9.7 0.6 9.7-2.6 0-3.3-5.5-4.2-8.9-4.2-4 0.1-6.9 1.2-12 3.3-5 2.1-7.5 1.6-8.6 1.6-2.6 0.3-5.3 0.6-9 0-3.8-0.5-11-4.1-12.1-7.6 5-1.2 7.5 0 10.9 1.5 0 0 1 0.1 0.4-0.1 2.5-2.5 6.5-4.4 11.1-3.9 4.6 0.4 5.3 2.1 8 2.5 2.6 0.3 6.6-0.5 9.8-0.5 3.7 0 7.3 0.2 10.2 2 1.8 1.2 3.8 3.1 3.9 5.3 0 1.8-1.4 3.8-3 4.5-4.9 2.2-13.4 1.3-19 0.6-5.6-0.7-7.8-0.8-8.7-0.9-0.7 0 3.5 3.1 2 2.8-1.5-0.3-2 0.7-5 0.2-0.4-0.2-0.8-0.4-0.8 0.1-0.2 0.6-3.5 0.4-4.3 0-1.2-0.6-0.3-0.2-0.8 0.2-0.6 0.3-3.8 0.5-6.2-0.2l-0.1 0.1c-1.2 0.3-2.7 0.3-3.4 0l-0.8-0.2c-0.4-0.1-2 0.7-3 0.1-1-0.5-0.7-0.9-2-2.6-1.2-1.8-3.4-1.9-5.1-2.2-1.6-0.3-10.5-0.3-12.3-0.2-1.7 0.2-3.5 1.4-3.6 3.1-0.1 1.8 1.9 4 3.4 4.2 1.5 0.1 51.7-1 56.1-0.5 4.5 0.5 8.4 2 11 2.4 2.6 0.3 6 0.5 7.5 0.3 1.5-0.2 3.8-0.6 4.7-1 0.9-0.5 0.5-0.5 1.6-1.1-2.1-2.6-1.9-7.9 2.1-6.5-1.9-2.7-0.1-4.6 2-4.2-0.9-2.3 0.5-4.1 2.7-3.2-0.4-2.7 2-2.9 3.1-1.2 0.3-3.1 3.1-2.7 3.8-0.6 0.9-2.5 3.3-1.6 3.4 0.3 0.9-1.8 3.4-0.7 3.1 1.2 1.3-1.5 2.8-0.4 2.3 1.3 1.4-0.8 2.8 0.4 1.9 2.5 3.2-1.3 4 3.6 2.5 5.8-1.6 2.2 1.5 1.5 1.8 4.1 1.1 0 2.8-0.1 3.8 1.6-5.2 1.6 1.3 1.5 2.3 0.9 1-0.6 5.6-4.3 6.6-5.4 0.8-0.8-0.6-2.8-1.5-3.7-1.1-1.1-1.1-2.6-0.4-3.6 0.7-0.7 1.3-1.1 2.8-1 1.2 0.2 2.1 1 1.2 0.2-0.8-0.8-0.4-2.1 0.2-2.8 0.7-0.8 1.6-1.1 2.8-0.8 0.7 0.2 1.3 0.8 1.3 1.5 0 1 0.1 0.7 0.9 0.4 0.7-0.3 2.8-0.9 3.9-0.4 0.9 0.3 2.3 1.3 2.1 2.5-0.3 1.3-0.7 1 0.2 0.9 0.8-0.2 2.8 1.2 3.3 2.5 0.6 1.6 0.4 3.8-0.8 5-0.6 0.5-1.5 0.4-2.5 0.4-0.9 0-0.8 2.1-0.2 2.1 0.5 0 0.8 0.9 0 1.8-0.4 0.6 0 0.6-0.7 1.1 0.8 0.5-0.2 2-1.4 2.8 0.7 0.5-0.9 1.8-1.7 1.8-0.1 0.8-0.3 1.9-1.7 2.8-1.2 0.5-1.9 0.3-1.7 0.5-0.5 2.6-2.7 2-2.5 2.3 0.2 0.3-0.7 2.1-2 2.4-2.1 0.6-1.6 0.1-3.5 2.5-1.8-1.1-2.7 0.5-4.4 1.2-1.7 0.6-2.4-0.6-2.9 0-0.9-1.8-2.5-3.1-4.7-3.6-0.6 2.1 1.8 3.5 2.4 4-0.9 0.9-2.9 2-4.8 1.3 0.1 0-0.4 1.7-2.5 1.4-0.6-0.1-1.7 2.4-6.9 0.6 0 0.2 6.4 1.8 10.3 2 4 0.2 6.3 2.4 8.9 1.8 2.5-0.6 2.1-6.1 6.8-4.6 1.4 0.5 1.4 1.8 1.1 2.7-0.4 1.6 1.5-0.5 2.4-1.1 1.6-0.9 4.2-1.1 5 0.4 0.9 1.4 1.5 3.8-0.2 4.5l0.4 0.1c1.6 0.8 1.2 6.8-2.2 6.2-1.2-0.3-3.9-2.6-3.4-1.8 0.4 0.8 0.1 2.2-0.5 2.8-0.6 0.7-3.5 1.1-4.6 0.8-1.2-0.3-1.6-0.8-1.9-1.5-0.5-1.2-0.4-1.9-0.5-1.2-0.5 1.4-2.8 0.1-2.6 0.6 0.2 0.5 1 0.9 0.1 1.3-1.8 0.2-3.1 0-3.7-0.2 0 0-0.5-0.2-0.5 0.1-1.6 0-3.3 0.4-4.3-0.6 0 0 0.3 0.3 0.3 0.6-2.2 0.2-3.4 0.4-4.2-1 0 0.4 0.4 0.3 0.3 1-2.4 0.2-5.1 0.3-6-0.8 0 0 0.2 0.4 0.2 0.8-2.7 0.3-5.7 0-6.4-3.3-0.7 0.6-1.8 1-2.7 1-3.1 0.1-6-1.8-5.1-7.7 0.1-1.6-0.4-2.4-1.1-1.3-0.7 1.1-2.4 0.9-3.5 0-1.2-1-10.2-6.9-15.5-11.1-2.4-2.1-6.7-3.7-8.6-4.1-3.8-0.5-8.2-0.3-12 0.7z"/><path class="e" d="m126.3 92.3c0.1 0.2-0.1 4.5 0.7 7 0.5 1.8-4.2 2.8-5.7-0.3-1-2-1.8-3.7-1.9-5.7 0-0.7 1.7-0.2 2-1.2 0.3-1 0.6-1.1 1.3-0.4 0.9 0.9 2.9 0.3 3.4-0.6z"/><path class="f" d="m15.4 119.3c0.6-1.4 2.1-1.7 2.1-1.7"/><path class="g" d="m111.3 96.9c-1.1 1.9-1.5 4.4-0.2 5.9"/><path class="g" d="m115.9 101c-1.9 2-2.6 3.8-2.1 6.4"/><path class="g" d="m115.9 102.8c-0.7 1.4-1.5 2.8-0.9 5.7"/><path class="g" d="m120.5 104c-0.4 1.5-0.6 4 1.2 6.1"/><path class="g" d="m123 109.5c-1.3-1.4-1.7-3.5-1.4-5.3"/><path class="g" d="m132.6 99.3c1.4 0.5 3.3 2.5 3.2 2.7"/><path class="g" d="m131.5 102c1.8-1.3 3.9 0.9 3.9 0.9"/><path class="h" d="m106.2 84.5c1.2 0.5 1 3.3 1 3.3"/><path class="h" d="m131.6 80.6c-1.3 0.9-0.8 3.5-0.8 3.5"/><path class="i" d="m157.6 83.5c0 0 0.2-0.6 0.4-1.8 0.3-1.1 1.2-2.3 2.6-2.7"/><path class="i" d="m149.4 78c1.4 1.3 1.1 3.6 1.1 3.6"/><path class="j" d="m107.3 113.7c0.7-1-0.3-2.5-1.3-3.2-3.9-2.8-3-2.9-3-2.9 0.9 0.3 4.3 2.7 5.2 5.8"/><path class="i" d="m113.1 102c-4.9 8.2 3.6 9.2 5.3 8"/><path class="j" d="m105 96.5c-0.8 0.4-1.6 0.7-2.5 0.6 0.6-1.6 0.5-4.5 3.5-5.7"/><path class="f" d="m108.5 101.3c0 2.7 2 3.8 2.8 4.2"/><path class="i" d="m153.5 75.7c0 1.1 0.2 1.5 0.6 2.5 0.3 0.9-0.2 2.6-0.2 2.6"/><path class="f" d="m24.8 104.6c2.4 0.3 3.4 1 3.4 1"/><path class="f" d="m19.5 106.9c1.8 0.7 3.3 0.7 3.3 0.7"/><path class="f" d="m17.3 110.9c1.5-0.2 2.3-0.2 2.3-0.2"/><path class="f" d="m14 114.6c0.8-0.5 3.4-0.2 3.4-0.1"/><path class="f" d="m30.4 122.5c-0.4-2.1-2.1-2.9-3.4-2.9"/><path class="f" d="m32.4 118c-1.2-0.2-2.8-0.1-2.8-0.1"/><path class="i" d="m136.2 91.4c2.9 1.9 3.8 3.9 3.3 7.8"/><path class="i" d="m118 101c-1.4 3.4-1.6 9.1 3.4 11"/><path class="i" d="m123 103.9c0.2 2.4 1.9 6.9 5.2 7.5"/><path class="f" d="m47.5 86.6c-0.7-1.9-2.8-3.5-2.8-3.5"/><path class="f" d="m51.4 86.6c-1.2-2.2-3.1-3.7-3.1-3.7"/><path class="f" d="m58.1 86.6c-1.9-1.1-2.8-1.8-4.1-3.6"/><path class="f" d="m63.2 86.5c-1.1-0.5-1.7-0.9-2.5-1.6-0.7-0.6-1.2-1.2-2-2.1"/><path class="i" d="m62.1 80.6c4.4-0.4 5.9-2 6.6-2.9"/><path class="i" d="m54.1 74.2c2.9 1.2 4.1 0 4.4 0"/><path class="i" d="m131 110c-2.4-1.1-2.9-3.7-2.9-3.7"/><path class="k" d="m132.1 97.7c2.2-0.3 7.9 4.4 6 10.3"/><path class="k" d="m135.6 95.1c3.2 0.6 4.8 5.6 2.8 8.6"/><path class="f" d="m108.9 98.3c-0.7 1.3-0.4 3.7 0 5-5 0-4.7-3.3-4.5-4.9 0.1-1 0.9-2.7 3-5.5"/><path class="l" d="m116.5 80.8c0.4 0 0.6 0.1 0.7 0.5 0 0.1 0.1 0.4 0.1 0.7q0.1 0.5 0 1.1c-0.2 0.9-1.4 1-1.6 0.3q-0.2-0.7-0.2-1.3c0-0.2 0-0.4 0.1-0.6 0.1-0.5 0.4-0.8 0.9-0.7z"/><path class="l" d="m123.8 81.2c-0.2-0.6-0.3-2 1.1-1.7q0 0 0 0c0.3 0.2 0.6 0.9 0.7 1.3 0.1 0.4 0.4 1.6-0.7 1.7q0 0 0 0c-0.6-0.2-0.9-0.7-1.1-1.3z"/><path class="i" d="m109.6 87h2c1.4 2.5 5.3 1.7 4.2 2.1"/><path class="i" d="m116 89c-0.2 3.3 5.7 5.9 5.8 0.9"/><path class="i" d="m129.8 85.8c-0.7 1.4-0.6 2-1.3 2.9-0.5 0.7-1.3 0.5-2.2 1.8-1.1 2.1-4.3 1.7-4.5-0.7"/><path class="i" d="m113 88.6c1.4 3.7 0.4 6.2 0.4 6.2"/><path class="h" d="m128.5 89.4c0.8 1.2 1.5 1.3 1.5 1.3"/><path class="b" d="m106 91.3c-0.2 0.1-0.9 0.4-1.3 0.3-1.1-0.3-2-1.1-2.6-1.9 1-0.4 1.8-0.3 2.6-0.2 0.7 0.1 1.3-0.4 1.3-0.4"/><path class="h" d="m159.6 92.1c-1.3 0.2-2.1-0.6-2.1-0.5"/><path class="h" d="m158.7 94.7c-2.4 0.8-4.1-0.6-4.1-0.6"/><path class="m" d="m155.7 117.7c-1.5-0.6-3.6-0.1-3.6-0.1"/><path class="m" d="m150.4 122.1c-0.7-1.3-1.8-1.9-1.8-1.9"/><path class="f" d="m136.7 124.7c-1.1-0.4-1.1-2.4-1.1-3.8"/><path class="f" d="m132 124.2c-0.9-0.7-0.6-3.3-0.6-3.3"/><path class="i" d="m128.3 124.3c-0.8-0.9-0.7-3.6-0.7-3.6"/><path class="i" d="m122.4 124.2c-0.9-1.1-0.5-3.6-0.5-3.6"/><path class="f" d="m82.3 118.6c2.6 1.6 2.6 2.8 2.5 3.2"/><path class="f" d="m78.4 118.7c0.3 2.3 1.9 3.7 1.9 3.7"/><path class="f" d="m75.2 118.9c0.1 2.1 1.6 3.5 1.6 3.5"/><path class="f" d="m71.3 118.9c0 2.5 1.5 3.5 1.5 3.5"/><path class="f" d="m67.2 118.9c0.1 1.9 0.6 2.9 1.3 3.6"/><path class="f" d="m62.9 118.3c-0.4 1.2 0.2 2.4 0.2 2.4"/><path class="f" d="m88.2 112.7c-2.1 0.5-2.7 1.5-2.7 1.5"/><path class="f" d="m90.4 117.2c-1.4-2.7-3.4-1.1-4.1-0.5"/><path class="n" d="m101.3 111.8c1.8 0.7 2.6 0.5 3.6-0.1"/><path class="n" d="m98.9 110c1.8 0.9 2.9 0.9 3.9 0.1"/><path class="n" d="m95.6 107.9c1.3 0.7 2 0.9 2.7 0.3"/><path class="n" d="m93.4 106.2c1.5 0.7 2.4 1 3.2 0.4"/><path class="o" d="m128.1 88.9c0 0 0.6 2.5 0.6 3.7 0 1.5-0.8 2.8-0.8 2.8 0 0-1.4-1.3-1.8-4.8"/><path class="o" d="m119.1 92.3c0 0 0.3 1.6 0.3 2.4-0.1 0.8-0.7 2.3-0.7 2.3-0.6-0.5-1.8-2.1-2.3-6.3"/><path class="h" d="m157.2 96.3c-2.1 0.4-3.4-0.6-3.5-0.7"/><path class="f" d="m148.1 104.8c0 0-2 0.2-3.3-2.2"/><path class="f" d="m151.9 101.9c-1.4 0.2-2.7 0.3-4.1-1.6"/><path class="f" d="m155.2 99.2c-0.3 0-2.5 1.6-4.8-1.2"/><path class="o" d="m114.9 81.1c1.3-0.5 4.4-0.1 3.9 1.4-0.3 1.3-4.8 1.8-4.7-0.1 0-0.4 0.1-1 0.8-1.3z"/><path class="o" d="m122.3 81.1c0.4-1.8 3.4-2 4.4-1.5 0.1 0.1 0.3 0.4 0.4 0.5 0.6 1.9-2.8 2.3-3.6 2.3"/><path class="i" d="m120.8 77.8c0 0 0.2 2.4 1.9 3.9 1.6 1.4 1 3.5 1 3.5"/><path class="i" d="m118 79.6c0 0 1.8 1.5 1.2 3.3-0.5 1.7 0.2 2.5 0.2 2.5"/><path class="i" d="m123 85.4c2.8 0 1.9 3 0.1 2.4 0.3 2.2-3.3 2.6-3.1-0.3-1.9 0.7-2.7-1.9 0.2-2.2"/></svg>